<svg width="59" height="59" viewBox="0 0 59 59" fill="none" xmlns="http://www.w3.org/2000/svg">
<circle cx="29.5" cy="29.5" r="27" fill="white" stroke="black" stroke-width="5"/>
<path fill-rule="evenodd" clip-rule="evenodd" d="M30 41.776C28.2787 42.717 26.3871 43.1262 24.4989 42.9661C22.6107 42.806 20.7865 42.0816 19.1937 40.8595C17.6009 39.6375 16.2905 37.9568 15.3831 35.972C14.4756 33.9871 14 31.7617 14 29.5C14 27.2383 14.4756 25.0129 15.3831 23.028C16.2905 21.0432 17.6009 19.3625 19.1937 18.1405C20.7865 16.9184 22.6107 16.194 24.4989 16.0339C26.3871 15.8738 28.2787 16.283 30 17.224C31.7213 16.283 33.6129 15.8738 35.5011 16.0339C37.3893 16.194 39.2135 16.9184 40.8063 18.1405C42.3991 19.3625 43.7094 21.0432 44.6169 23.028C45.5244 25.0129 46 27.2383 46 29.5C46 31.7617 45.5244 33.9871 44.6169 35.972C43.7094 37.9568 42.3991 39.6375 40.8063 40.8595C39.2135 42.0816 37.3893 42.806 35.5011 42.9661C33.6129 43.1262 31.7213 42.717 30 41.776ZM26.2337 38.4302C25.1738 38.5888 24.0977 38.4763 23.077 38.1C22.0562 37.7237 21.1142 37.0923 20.3133 36.2478C19.5124 35.4032 18.871 34.3648 18.4317 33.2014C17.9923 32.038 17.7651 30.7763 17.7651 29.5C17.7651 28.2237 17.9923 26.962 18.4317 25.7986C18.871 24.6352 19.5124 23.5968 20.3133 22.7522C21.1142 21.9077 22.0562 21.2763 23.077 20.9C24.0977 20.5237 25.1738 20.4112 26.2337 20.5698C24.4097 23.0336 23.4048 26.2107 23.409 29.5C23.4053 32.7892 24.4102 35.9661 26.2337 38.4302ZM33.7663 20.5698C34.8262 20.4112 35.9023 20.5237 36.923 20.9C37.9438 21.2763 38.8858 21.9077 39.6867 22.7522C40.4876 23.5968 41.129 24.6352 41.5683 25.7986C42.0077 26.962 42.2349 28.2237 42.2349 29.5C42.2349 30.7763 42.0077 32.038 41.5683 33.2014C41.129 34.3648 40.4876 35.4032 39.6867 36.2478C38.8858 37.0923 37.9438 37.7237 36.923 38.1C35.9023 38.4763 34.8262 38.5888 33.7663 38.4302C35.5901 35.9663 36.595 32.7893 36.591 29.5C36.595 26.2107 35.5901 23.0337 33.7663 20.5698ZM30 22.4733C31.7231 24.1225 32.8247 26.6583 32.8247 29.5C32.8247 32.3417 31.7231 34.8775 30 36.5267C29.1177 35.6842 28.4056 34.615 27.9166 33.3985C27.4276 32.182 27.1742 30.8495 27.1753 29.5C27.1753 26.6583 28.2769 24.1225 30 22.4733Z" fill="black"/>
</svg>
